<svg xmlns="http://www.w3.org/2000/svg" viewBox="0 0 96 180" width="96" height="180" role="img" aria-labelledby="serie-a-title" class="lx-trophy" data-trophy="serie-a">
  <title id="serie-a-title">Coppa Campioni d'Italia (Serie A)</title>
  <!-- LENDA trophy art (generated, hand-tuned). Gradient stops read the metal-* CSS custom properties when inlined; hex fallbacks otherwise. -->
  <defs>
  <linearGradient id="serie-a-gold-h" x1="0" x2="1"><stop offset="0" style="stop-color:var(--metal-gold-2,#5c3a05)"/><stop offset=".12" style="stop-color:var(--metal-gold-5,#d4a236)"/><stop offset=".28" style="stop-color:var(--metal-gold-3,#94640f)"/><stop offset=".45" style="stop-color:var(--metal-gold-8,#fff3c4)"/><stop offset=".57" style="stop-color:var(--metal-gold-6,#f4cf63)"/><stop offset=".75" style="stop-color:var(--metal-gold-4,#a87414)"/><stop offset=".89" style="stop-color:var(--metal-gold-6,#f4cf63)"/><stop offset="1" style="stop-color:var(--metal-gold-2,#5c3a05)"/></linearGradient>
  <linearGradient id="serie-a-sheen" x1="0" y1="0" x2="1" y2="1"><stop offset="0" stop-color="#fff" stop-opacity="0"/><stop offset=".42" stop-color="#fff" stop-opacity="0"/><stop offset=".5" stop-color="#fff" stop-opacity=".55"/><stop offset=".58" stop-color="#fff" stop-opacity="0"/><stop offset="1" stop-color="#fff" stop-opacity="0"/></linearGradient>
  <linearGradient id="serie-a-gold-v" x1="0" x2="0" y1="0" y2="1"><stop offset="0" style="stop-color:var(--metal-gold-8,#fff3c4)"/><stop offset=".5" style="stop-color:var(--metal-gold-6,#f4cf63)"/><stop offset="1" style="stop-color:var(--metal-gold-3,#94640f)"/></linearGradient>
  <linearGradient id="serie-a-gold-d" x1="0" x2="1"><stop offset="0" style="stop-color:var(--metal-gold-1,#3d2603)"/><stop offset=".32" style="stop-color:var(--metal-gold-3,#94640f)"/><stop offset=".52" style="stop-color:var(--metal-gold-5,#d4a236)"/><stop offset=".74" style="stop-color:var(--metal-gold-3,#94640f)"/><stop offset="1" style="stop-color:var(--metal-gold-1,#3d2603)"/></linearGradient>
  <linearGradient id="serie-a-navy" x1="0" x2="1"><stop offset="0" stop-color="#050b1f"/><stop offset=".45" stop-color="#1b2a55"/><stop offset=".55" stop-color="#2a3b6e"/><stop offset="1" stop-color="#040918"/></linearGradient>
  </defs>
  <g>
  <path d="M88,6 C84,40 60,70 55,96 L53.6,108 L42.4,108 L41,96 C36,70 12,40 8,6 Z" fill="url(#serie-a-gold-h)"/>
  <path d="M14,20 Q48,23 82,20" fill="none" stroke="#5c3a05" stroke-width="1.3" stroke-opacity=".28" stroke-dasharray=".9 1.6" stroke-linecap="round"/>
  <path d="M21,32 Q48,35 75,32" fill="none" stroke="#5c3a05" stroke-width="1.3" stroke-opacity=".28" stroke-dasharray=".9 1.6" stroke-linecap="round"/>
  <path d="M28,44 Q48,47 68,44" fill="none" stroke="#5c3a05" stroke-width="1.3" stroke-opacity=".28" stroke-dasharray=".9 1.6" stroke-linecap="round"/>
  <path d="M34,56 Q48,59 62,56" fill="none" stroke="#5c3a05" stroke-width="1.3" stroke-opacity=".28" stroke-dasharray=".9 1.6" stroke-linecap="round"/>
  <path d="M38,68 Q48,71 58,68" fill="none" stroke="#5c3a05" stroke-width="1.3" stroke-opacity=".28" stroke-dasharray=".9 1.6" stroke-linecap="round"/>
  <path d="M88,6 C84,40 60,70 55,96 L53.6,108 L42.4,108 L41,96 C36,70 12,40 8,6 Z" fill="url(#serie-a-sheen)" opacity="0.55"/>
  <ellipse cx="48" cy="6" rx="40.4" ry="4.4" fill="url(#serie-a-gold-v)"/>
  <ellipse cx="48" cy="5.78" rx="35.55" ry="2.9" fill="#3d2603"/>
  <ellipse cx="48" cy="6.6" rx="34" ry="2.2" fill="url(#serie-a-gold-d)" opacity=".5"/>
  <path d="M53.6,107 C58,108 59.5,113 59.5,116 C59.5,119 56,121 53,122 L53,126 L43,126 L43,122 C40,121 36.5,119 36.5,116 C36.5,113 38,108 42.4,107 Z" fill="url(#serie-a-gold-h)"/>
  <ellipse cx="48" cy="116" rx="11.4" ry="1.4" fill="url(#serie-a-gold-d)"/>
  <path d="M53,125 C57,128 63,133 65,140 L65,142 L31,142 L31,140 C33,133 39,128 43,125 Z" fill="url(#serie-a-gold-h)"/>
  <path d="M27,142 L69,142 L69.5,156 Q48,157.6 26.5,156 Z" fill="url(#serie-a-gold-h)"/>
  <rect x="35" y="145.5" width="26" height="7.6" rx="0.6" fill="url(#serie-a-gold-d)"/>
  <path d="M38,149.3 L58,149.3" fill="none" stroke="#3d2603" stroke-width="1.8" stroke-opacity=".75" stroke-dasharray="2.2 .9" stroke-linecap="butt"/>
  <path d="M23,156 L73,156 L74,172 Q48,175.2 22,172 Z" fill="url(#serie-a-navy)"/>
  <ellipse cx="48" cy="156" rx="25" ry="2.4" fill="#2a3b6e"/>
  </g>
</svg>
