<svg xmlns="http://www.w3.org/2000/svg" viewBox="0 0 120 180" width="120" height="180" role="img" aria-labelledby="wc-golden-boot-title" class="lx-trophy" data-trophy="wc-golden-boot">
  <title id="wc-golden-boot-title">Chuteira de Ouro da Copa do Mundo</title>
  <!-- LENDA trophy art (generated, hand-tuned). Gradient stops read the metal-* CSS custom properties when inlined; hex fallbacks otherwise. -->
  <defs>
  <linearGradient id="wc-golden-boot-glassh" x1="0" x2="1"><stop offset="0" stop-color="#3a4452" stop-opacity=".9"/><stop offset=".2" stop-color="#b7c3d0" stop-opacity=".55"/><stop offset=".42" stop-color="#ffffff" stop-opacity=".85"/><stop offset=".6" stop-color="#8e9aa8" stop-opacity=".45"/><stop offset=".86" stop-color="#d9e2ea" stop-opacity=".6"/><stop offset="1" stop-color="#333b47" stop-opacity=".9"/></linearGradient>
  <linearGradient id="wc-golden-boot-gold-h" x1="0" x2="1"><stop offset="0" style="stop-color:var(--metal-gold-2,#5c3a05)"/><stop offset=".12" style="stop-color:var(--metal-gold-5,#d4a236)"/><stop offset=".28" style="stop-color:var(--metal-gold-3,#94640f)"/><stop offset=".45" style="stop-color:var(--metal-gold-8,#fff3c4)"/><stop offset=".57" style="stop-color:var(--metal-gold-6,#f4cf63)"/><stop offset=".75" style="stop-color:var(--metal-gold-4,#a87414)"/><stop offset=".89" style="stop-color:var(--metal-gold-6,#f4cf63)"/><stop offset="1" style="stop-color:var(--metal-gold-2,#5c3a05)"/></linearGradient>
  <linearGradient id="wc-golden-boot-gold-v" x1="0" x2="0" y1="0" y2="1"><stop offset="0" style="stop-color:var(--metal-gold-8,#fff3c4)"/><stop offset=".5" style="stop-color:var(--metal-gold-6,#f4cf63)"/><stop offset="1" style="stop-color:var(--metal-gold-3,#94640f)"/></linearGradient>
  <linearGradient id="wc-golden-boot-gold-d" x1="0" x2="1"><stop offset="0" style="stop-color:var(--metal-gold-1,#3d2603)"/><stop offset=".32" style="stop-color:var(--metal-gold-3,#94640f)"/><stop offset=".52" style="stop-color:var(--metal-gold-5,#d4a236)"/><stop offset=".74" style="stop-color:var(--metal-gold-3,#94640f)"/><stop offset="1" style="stop-color:var(--metal-gold-1,#3d2603)"/></linearGradient>
  <linearGradient id="wc-golden-boot-lacq" x1="0" x2="1"><stop offset="0" style="stop-color:var(--metal-lacquer-1,#050506)"/><stop offset=".4" style="stop-color:var(--metal-lacquer-2,#232529)"/><stop offset=".52" style="stop-color:var(--metal-lacquer-3,#40434b)"/><stop offset=".64" style="stop-color:var(--metal-lacquer-2,#1f2126)"/><stop offset="1" style="stop-color:var(--metal-lacquer-1,#040405)"/></linearGradient>
  </defs>
  <g>
  <path d="M42,86 L78,86 L80,150 L40,150 Z" fill="url(#wc-golden-boot-glassh)" opacity=".55"/>
  <path d="M42,86 L78,86 L80,150 L40,150 Z" fill="none" stroke="#dfe6ee" stroke-width=".8" stroke-opacity=".6"/>
  <path d="M43,88 L41,148" fill="none" stroke="#fff" stroke-width="1" stroke-opacity=".7" stroke-linecap="round"/>
  <path d="M70,88 L71,148" fill="none" stroke="#fff" stroke-width="0.6" stroke-opacity=".45" stroke-linecap="round"/>
  <path d="M12.04,62.36 C12.04,50.12 18.16,44 28.36,44 L46.72,41.96 C50.8,41.96 52.84,44 54.88,48.08 L58.96,54.2 C69.16,60.32 83.44,64.4 95.68,67.46 C105.88,70.52 109.96,74.6 108.94,79.7 C107.92,83.78 101.8,84.8 93.64,84.8 L20.2,84.8 C14.08,84.8 10,80.72 10,74.6 Z" fill="url(#wc-golden-boot-gold-h)"/>
  <path d="M12.04,62.36 C12.04,50.12 18.16,44 28.36,44 L46.72,41.96 C50.8,41.96 52.84,44 54.88,48.08 L58.96,54.2 C69.16,60.32 83.44,64.4 95.68,67.46 C105.88,70.52 109.96,74.6 108.94,79.7 C107.92,83.78 101.8,84.8 93.64,84.8 L20.2,84.8 C14.08,84.8 10,80.72 10,74.6 Z" fill="url(#wc-golden-boot-gold-v)" opacity=".45"/>
  <path d="M10,76.64 C40.6,74.6 81.4,74.6 108.94,79.7 C107.92,83.78 101.8,84.8 93.64,84.8 L20.2,84.8 C14.08,84.8 10,80.72 10,76.64 Z" fill="url(#wc-golden-boot-gold-d)"/>
  <path d="M25.3,46.04 C32.44,42.98 42.64,41.96 50.8,43.49 C48.76,47.06 40.6,49.1 34.48,49.1 C29.38,49.1 26.32,48.08 25.3,46.04 Z" fill="#3d2603"/>
  <path d="M56.92,54.2 l3.67,-4.08 M63.04,56.85 l3.67,-4.08 M69.16,59.5 l3.67,-4.08 M75.28,62.16 l3.67,-4.08" fill="none" stroke="#5c3a05" stroke-width="1.53" stroke-opacity=".8" stroke-linecap="round"/>
  <path d="M32.44,72.56 L40.6,52.16 M38.56,72.56 L46.72,52.16 M44.68,72.56 L52.84,52.16" fill="none" stroke="#5c3a05" stroke-width="2.24" stroke-opacity=".55" stroke-linecap="butt"/>
  <rect x="24.28" y="84.8" width="4.08" height="3.67" rx="0.61" fill="url(#wc-golden-boot-gold-d)"/>
  <rect x="36.52" y="84.8" width="4.08" height="3.67" rx="0.61" fill="url(#wc-golden-boot-gold-d)"/>
  <rect x="71.2" y="84.8" width="4.08" height="3.67" rx="0.61" fill="url(#wc-golden-boot-gold-d)"/>
  <rect x="85.48" y="84.8" width="4.08" height="3.67" rx="0.61" fill="url(#wc-golden-boot-gold-d)"/>
  <rect x="97.72" y="84.8" width="4.08" height="3.67" rx="0.61" fill="url(#wc-golden-boot-gold-d)"/>
  <path d="M30,150 L90,150 L92,174 L28,174 Z" fill="url(#wc-golden-boot-lacq)"/>
  <path d="M30,150.5 L90,150.5" fill="none" stroke="#6a6d76" stroke-width="0.8" stroke-linecap="butt"/>
  <ellipse cx="60" cy="174" rx="32" ry="1.2" fill="#050506" opacity=".6"/>
  <rect x="44" y="157" width="32" height="10" rx="0.6" fill="url(#wc-golden-boot-gold-v)"/>
  </g>
</svg>
